<svg width="48" height="48" viewBox="0 0 48 48" fill="none" xmlns="http://www.w3.org/2000/svg">
<path d="M24.0002 44.3C21.2335 44.3 18.6169 43.7667 16.1502 42.7C13.6835 41.6333 11.5252 40.175 9.6752 38.325C7.8252 36.475 6.36686 34.3167 5.3002 31.85C4.23353 29.3833 3.7002 26.7667 3.7002 24C3.7002 21.1667 4.24186 18.5083 5.3252 16.025C6.40853 13.5417 7.88353 11.3917 9.7502 9.57501C11.6169 7.75835 13.8169 6.32501 16.3502 5.27501C18.8835 4.22501 21.5835 3.70001 24.4502 3.70001C27.1169 3.70001 29.6502 4.15001 32.0502 5.05001C34.4502 5.95001 36.5585 7.19168 38.3752 8.77501C40.1919 10.3583 41.6335 12.25 42.7002 14.45C43.7669 16.65 44.3002 19.05 44.3002 21.65C44.3002 25.2833 43.2502 28.1833 41.1502 30.35C39.0502 32.5167 36.2169 33.6 32.6502 33.6H29.1002C28.5335 33.6 28.0335 33.8333 27.6002 34.3C27.1669 34.7667 26.9502 35.2667 26.9502 35.8C26.9502 36.4667 27.1752 37.0583 27.6252 37.575C28.0752 38.0917 28.3002 38.7667 28.3002 39.6C28.3002 40.5 27.8585 41.5083 26.9752 42.625C26.0919 43.7417 25.1002 44.3 24.0002 44.3ZM12.4502 25.3C13.1169 25.3 13.7002 25.05 14.2002 24.55C14.7002 24.05 14.9502 23.4667 14.9502 22.8C14.9502 22.1333 14.7002 21.55 14.2002 21.05C13.7002 20.55 13.1169 20.3 12.4502 20.3C11.7835 20.3 11.2002 20.55 10.7002 21.05C10.2002 21.55 9.9502 22.1333 9.9502 22.8C9.9502 23.4667 10.2002 24.05 10.7002 24.55C11.2002 25.05 11.7835 25.3 12.4502 25.3ZM18.7002 16.9C19.3669 16.9 19.9502 16.65 20.4502 16.15C20.9502 15.65 21.2002 15.0667 21.2002 14.4C21.2002 13.7 20.9502 13.1083 20.4502 12.625C19.9502 12.1417 19.3669 11.9 18.7002 11.9C18.0335 11.9 17.4502 12.1417 16.9502 12.625C16.4502 13.1083 16.2002 13.7 16.2002 14.4C16.2002 15.0667 16.4502 15.65 16.9502 16.15C17.4502 16.65 18.0335 16.9 18.7002 16.9ZM29.3002 16.9C29.9669 16.9 30.5502 16.65 31.0502 16.15C31.5502 15.65 31.8002 15.0667 31.8002 14.4C31.8002 13.7 31.5502 13.1083 31.0502 12.625C30.5502 12.1417 29.9669 11.9 29.3002 11.9C28.6335 11.9 28.0502 12.1417 27.5502 12.625C27.0502 13.1083 26.8002 13.7 26.8002 14.4C26.8002 15.0667 27.0502 15.65 27.5502 16.15C28.0502 16.65 28.6335 16.9 29.3002 16.9ZM35.7502 25.3C36.4169 25.3 37.0002 25.05 37.5002 24.55C38.0002 24.05 38.2502 23.4667 38.2502 22.8C38.2502 22.1333 38.0002 21.55 37.5002 21.05C37.0002 20.55 36.4169 20.3 35.7502 20.3C35.0835 20.3 34.5002 20.55 34.0002 21.05C33.5002 21.55 33.2502 22.1333 33.2502 22.8C33.2502 23.4667 33.5002 24.05 34.0002 24.55C34.5002 25.05 35.0835 25.3 35.7502 25.3Z" fill="white"/>
</svg>
