<svg width="48" height="48" viewBox="0 0 48 48" fill="none" xmlns="http://www.w3.org/2000/svg">
<path d="M19.1501 44.3L18.1001 37.9C17.5334 37.7 16.9168 37.4083 16.2501 37.025C15.5834 36.6417 15.0001 36.25 14.5001 35.85L8.5501 38.6L3.6001 29.9L9.1001 25.9C9.03343 25.6333 8.99176 25.3167 8.9751 24.95C8.95843 24.5833 8.9501 24.2667 8.9501 24C8.9501 23.7333 8.95843 23.4167 8.9751 23.05C8.99176 22.6833 9.03343 22.3667 9.1001 22.1L3.6001 18.1L8.5501 9.40001L14.5501 12.15C15.0168 11.75 15.5834 11.3667 16.2501 11C16.9168 10.6333 17.5334 10.35 18.1001 10.15L19.1501 3.70001H28.8501L29.9001 10.1C30.4668 10.3333 31.0918 10.625 31.7751 10.975C32.4584 11.325 33.0334 11.7167 33.5001 12.15L39.5001 9.40001L44.4001 18.1L38.9001 22C38.9668 22.3 39.0084 22.6333 39.0251 23C39.0418 23.3667 39.0501 23.7 39.0501 24C39.0501 24.3 39.0418 24.625 39.0251 24.975C39.0084 25.325 38.9668 25.65 38.9001 25.95L44.4001 29.9L39.4501 38.6L33.4501 35.85C32.9834 36.25 32.4251 36.65 31.7751 37.05C31.1251 37.45 30.5001 37.7333 29.9001 37.9L28.8501 44.3H19.1501ZM24.0001 30.5C25.8001 30.5 27.3334 29.8667 28.6001 28.6C29.8668 27.3333 30.5001 25.8 30.5001 24C30.5001 22.2 29.8668 20.6667 28.6001 19.4C27.3334 18.1333 25.8001 17.5 24.0001 17.5C22.2001 17.5 20.6668 18.1333 19.4001 19.4C18.1334 20.6667 17.5001 22.2 17.5001 24C17.5001 25.8 18.1334 27.3333 19.4001 28.6C20.6668 29.8667 22.2001 30.5 24.0001 30.5Z" fill="white"/>
</svg>
